<mxfile host="Electron" modified="2023-10-20T18:55:05.242Z" agent="Mozilla/5.0 (Windows NT 10.0; Win64; x64) AppleWebKit/537.36 (KHTML, like Gecko) draw.io/22.0.2 Chrome/114.0.5735.289 Electron/25.8.4 Safari/537.36" etag="oJyj2AcbeOvoOKa4SljQ" version="22.0.2" type="device">
  <diagram name="page-1" id="nTteX_-L-bd6lsjCAH_5">
    <mxGraphModel dx="592" dy="346" grid="1" gridSize="10" guides="1" tooltips="1" connect="1" arrows="1" fold="1" page="1" pageScale="1" pageWidth="827" pageHeight="1169" math="0" shadow="0">
      <root>
        <mxCell id="0" />
        <mxCell id="1" parent="0" />
        <mxCell id="EXyYNqXJy9l3_5CAV1TX-2" style="edgeStyle=orthogonalEdgeStyle;rounded=0;orthogonalLoop=1;jettySize=auto;html=1;exitX=1;exitY=0.5;exitDx=0;exitDy=0;entryX=0;entryY=0.5;entryDx=0;entryDy=0;" edge="1" parent="1" source="0EIq4OgII-BHYrVc7AHv-1" target="DO5qITBA8kPqdeRQ393A-11">
          <mxGeometry relative="1" as="geometry" />
        </mxCell>
        <mxCell id="0EIq4OgII-BHYrVc7AHv-1" value="NodeEditor" style="rounded=0;whiteSpace=wrap;html=1;" parent="1" vertex="1">
          <mxGeometry x="20" y="20" width="120" height="60" as="geometry" />
        </mxCell>
        <mxCell id="EXyYNqXJy9l3_5CAV1TX-91" style="edgeStyle=orthogonalEdgeStyle;rounded=0;orthogonalLoop=1;jettySize=auto;html=1;exitX=0.5;exitY=1;exitDx=0;exitDy=0;entryX=0.5;entryY=0;entryDx=0;entryDy=0;" edge="1" parent="1" source="DO5qITBA8kPqdeRQ393A-11" target="DO5qITBA8kPqdeRQ393A-20">
          <mxGeometry relative="1" as="geometry">
            <Array as="points">
              <mxPoint x="292" y="100" />
              <mxPoint x="173" y="100" />
            </Array>
          </mxGeometry>
        </mxCell>
        <mxCell id="EXyYNqXJy9l3_5CAV1TX-92" style="edgeStyle=orthogonalEdgeStyle;rounded=0;orthogonalLoop=1;jettySize=auto;html=1;exitX=0.5;exitY=1;exitDx=0;exitDy=0;entryX=0.5;entryY=0;entryDx=0;entryDy=0;" edge="1" parent="1" source="DO5qITBA8kPqdeRQ393A-11" target="EXyYNqXJy9l3_5CAV1TX-62">
          <mxGeometry relative="1" as="geometry" />
        </mxCell>
        <mxCell id="EXyYNqXJy9l3_5CAV1TX-93" style="edgeStyle=orthogonalEdgeStyle;rounded=0;orthogonalLoop=1;jettySize=auto;html=1;exitX=0.5;exitY=1;exitDx=0;exitDy=0;entryX=0.5;entryY=0;entryDx=0;entryDy=0;" edge="1" parent="1" source="DO5qITBA8kPqdeRQ393A-11" target="EXyYNqXJy9l3_5CAV1TX-82">
          <mxGeometry relative="1" as="geometry">
            <Array as="points">
              <mxPoint x="292" y="100" />
              <mxPoint x="447" y="100" />
              <mxPoint x="447" y="140" />
            </Array>
          </mxGeometry>
        </mxCell>
        <mxCell id="EXyYNqXJy9l3_5CAV1TX-128" style="edgeStyle=orthogonalEdgeStyle;rounded=0;orthogonalLoop=1;jettySize=auto;html=1;exitX=1;exitY=0.5;exitDx=0;exitDy=0;entryX=0;entryY=0.5;entryDx=0;entryDy=0;" edge="1" parent="1" source="DO5qITBA8kPqdeRQ393A-11" target="EXyYNqXJy9l3_5CAV1TX-4">
          <mxGeometry relative="1" as="geometry" />
        </mxCell>
        <mxCell id="DO5qITBA8kPqdeRQ393A-11" value="AutoArrangePlugin" style="rounded=0;whiteSpace=wrap;html=1;" parent="1" vertex="1">
          <mxGeometry x="231.5" y="20" width="120" height="60" as="geometry" />
        </mxCell>
        <mxCell id="DO5qITBA8kPqdeRQ393A-20" value="layout" style="rounded=1;whiteSpace=wrap;html=1;arcSize=50;" parent="1" vertex="1">
          <mxGeometry x="140" y="140" width="66" height="30" as="geometry" />
        </mxCell>
        <mxCell id="EXyYNqXJy9l3_5CAV1TX-1" value="use" style="rounded=1;whiteSpace=wrap;html=1;arcSize=50;" vertex="1" parent="1">
          <mxGeometry x="153" y="35" width="40" height="30" as="geometry" />
        </mxCell>
        <mxCell id="EXyYNqXJy9l3_5CAV1TX-130" style="edgeStyle=orthogonalEdgeStyle;rounded=0;orthogonalLoop=1;jettySize=auto;html=1;exitX=0.75;exitY=1;exitDx=0;exitDy=0;curved=1;dashed=1;" edge="1" parent="1" source="EXyYNqXJy9l3_5CAV1TX-4" target="EXyYNqXJy9l3_5CAV1TX-123">
          <mxGeometry relative="1" as="geometry">
            <Array as="points">
              <mxPoint x="323" y="65" />
            </Array>
          </mxGeometry>
        </mxCell>
        <mxCell id="EXyYNqXJy9l3_5CAV1TX-4" value="elk.js" style="rounded=0;whiteSpace=wrap;html=1;dashed=1;" vertex="1" parent="1">
          <mxGeometry x="414" y="35" width="70" height="30" as="geometry" />
        </mxCell>
        <mxCell id="EXyYNqXJy9l3_5CAV1TX-72" style="edgeStyle=orthogonalEdgeStyle;rounded=0;orthogonalLoop=1;jettySize=auto;html=1;exitX=1;exitY=0.5;exitDx=0;exitDy=0;entryX=0;entryY=0.5;entryDx=0;entryDy=0;dashed=1;" edge="1" parent="1" source="EXyYNqXJy9l3_5CAV1TX-76">
          <mxGeometry relative="1" as="geometry">
            <mxPoint x="418" y="330" as="targetPoint" />
          </mxGeometry>
        </mxCell>
        <mxCell id="EXyYNqXJy9l3_5CAV1TX-104" style="edgeStyle=orthogonalEdgeStyle;rounded=0;orthogonalLoop=1;jettySize=auto;html=1;exitX=0.75;exitY=1;exitDx=0;exitDy=0;entryX=1;entryY=0.5;entryDx=0;entryDy=0;" edge="1" parent="1" source="EXyYNqXJy9l3_5CAV1TX-62" target="EXyYNqXJy9l3_5CAV1TX-90">
          <mxGeometry relative="1" as="geometry" />
        </mxCell>
        <mxCell id="EXyYNqXJy9l3_5CAV1TX-62" value="presets" style="rounded=0;whiteSpace=wrap;html=1;" vertex="1" parent="1">
          <mxGeometry x="244.5" y="140" width="95" height="30" as="geometry" />
        </mxCell>
        <mxCell id="EXyYNqXJy9l3_5CAV1TX-73" value="" style="edgeStyle=orthogonalEdgeStyle;rounded=0;orthogonalLoop=1;jettySize=auto;html=1;exitX=1;exitY=0.5;exitDx=0;exitDy=0;entryX=0;entryY=0.5;entryDx=0;entryDy=0;entryPerimeter=0;dashed=1;" edge="1" parent="1" target="EXyYNqXJy9l3_5CAV1TX-114">
          <mxGeometry relative="1" as="geometry">
            <mxPoint x="180" y="330" as="sourcePoint" />
            <mxPoint x="230" y="330" as="targetPoint" />
          </mxGeometry>
        </mxCell>
        <mxCell id="EXyYNqXJy9l3_5CAV1TX-75" value="" style="edgeStyle=orthogonalEdgeStyle;rounded=0;orthogonalLoop=1;jettySize=auto;html=1;exitX=1;exitY=0.5;exitDx=0;exitDy=0;entryX=0;entryY=0.5;entryDx=0;entryDy=0;exitPerimeter=0;dashed=1;" edge="1" parent="1" source="EXyYNqXJy9l3_5CAV1TX-114" target="EXyYNqXJy9l3_5CAV1TX-74">
          <mxGeometry relative="1" as="geometry">
            <mxPoint x="260" y="330" as="sourcePoint" />
            <mxPoint x="450" y="330" as="targetPoint" />
          </mxGeometry>
        </mxCell>
        <mxCell id="EXyYNqXJy9l3_5CAV1TX-74" value="" style="sketch=0;outlineConnect=0;fontColor=#232F3E;gradientColor=none;strokeColor=#232F3E;fillColor=#ffffff;dashed=0;verticalLabelPosition=bottom;verticalAlign=top;align=center;html=1;fontSize=12;fontStyle=0;aspect=fixed;shape=mxgraph.aws4.resourceIcon;resIcon=mxgraph.aws4.action;" vertex="1" parent="1">
          <mxGeometry x="256.5" y="315" width="30" height="30" as="geometry" />
        </mxCell>
        <mxCell id="EXyYNqXJy9l3_5CAV1TX-77" value="" style="edgeStyle=orthogonalEdgeStyle;rounded=0;orthogonalLoop=1;jettySize=auto;html=1;exitX=1;exitY=0.5;exitDx=0;exitDy=0;entryX=0;entryY=0.5;entryDx=0;entryDy=0;dashed=1;" edge="1" parent="1" source="EXyYNqXJy9l3_5CAV1TX-123" target="EXyYNqXJy9l3_5CAV1TX-76">
          <mxGeometry relative="1" as="geometry">
            <mxPoint x="320" y="330" as="sourcePoint" />
            <mxPoint x="450" y="330" as="targetPoint" />
          </mxGeometry>
        </mxCell>
        <mxCell id="EXyYNqXJy9l3_5CAV1TX-76" value="" style="sketch=0;outlineConnect=0;fontColor=#232F3E;gradientColor=none;strokeColor=#232F3E;fillColor=#ffffff;dashed=0;verticalLabelPosition=bottom;verticalAlign=top;align=center;html=1;fontSize=12;fontStyle=0;aspect=fixed;shape=mxgraph.aws4.resourceIcon;resIcon=mxgraph.aws4.action;" vertex="1" parent="1">
          <mxGeometry x="360" y="315" width="30" height="30" as="geometry" />
        </mxCell>
        <mxCell id="EXyYNqXJy9l3_5CAV1TX-98" style="edgeStyle=orthogonalEdgeStyle;rounded=0;orthogonalLoop=1;jettySize=auto;html=1;exitX=0.75;exitY=1;exitDx=0;exitDy=0;entryX=1;entryY=0.5;entryDx=0;entryDy=0;" edge="1" parent="1" source="EXyYNqXJy9l3_5CAV1TX-82" target="EXyYNqXJy9l3_5CAV1TX-66">
          <mxGeometry relative="1" as="geometry" />
        </mxCell>
        <mxCell id="EXyYNqXJy9l3_5CAV1TX-99" style="edgeStyle=orthogonalEdgeStyle;rounded=0;orthogonalLoop=1;jettySize=auto;html=1;exitX=0.75;exitY=1;exitDx=0;exitDy=0;entryX=1;entryY=0.5;entryDx=0;entryDy=0;" edge="1" parent="1" source="EXyYNqXJy9l3_5CAV1TX-82" target="EXyYNqXJy9l3_5CAV1TX-65">
          <mxGeometry relative="1" as="geometry" />
        </mxCell>
        <mxCell id="EXyYNqXJy9l3_5CAV1TX-82" value="appliers" style="rounded=0;whiteSpace=wrap;html=1;" vertex="1" parent="1">
          <mxGeometry x="410" y="140" width="73.5" height="30" as="geometry" />
        </mxCell>
        <mxCell id="EXyYNqXJy9l3_5CAV1TX-118" style="edgeStyle=orthogonalEdgeStyle;rounded=0;orthogonalLoop=1;jettySize=auto;html=1;exitX=0.5;exitY=1;exitDx=0;exitDy=0;curved=1;dashed=1;" edge="1" parent="1" source="EXyYNqXJy9l3_5CAV1TX-90" target="EXyYNqXJy9l3_5CAV1TX-74">
          <mxGeometry relative="1" as="geometry">
            <Array as="points">
              <mxPoint x="272" y="220" />
            </Array>
          </mxGeometry>
        </mxCell>
        <mxCell id="EXyYNqXJy9l3_5CAV1TX-90" value="classic" style="rounded=0;whiteSpace=wrap;html=1;" vertex="1" parent="1">
          <mxGeometry x="240" y="190" width="55" height="30" as="geometry" />
        </mxCell>
        <mxCell id="EXyYNqXJy9l3_5CAV1TX-121" style="edgeStyle=orthogonalEdgeStyle;rounded=0;orthogonalLoop=1;jettySize=auto;html=1;exitX=0.5;exitY=1;exitDx=0;exitDy=0;curved=1;dashed=1;" edge="1" parent="1" source="EXyYNqXJy9l3_5CAV1TX-65" target="EXyYNqXJy9l3_5CAV1TX-76">
          <mxGeometry relative="1" as="geometry">
            <Array as="points">
              <mxPoint x="375" y="260" />
            </Array>
          </mxGeometry>
        </mxCell>
        <mxCell id="EXyYNqXJy9l3_5CAV1TX-122" style="edgeStyle=orthogonalEdgeStyle;rounded=0;orthogonalLoop=1;jettySize=auto;html=1;exitX=0.5;exitY=1;exitDx=0;exitDy=0;curved=1;dashed=1;" edge="1" parent="1" source="EXyYNqXJy9l3_5CAV1TX-66" target="EXyYNqXJy9l3_5CAV1TX-76">
          <mxGeometry relative="1" as="geometry">
            <Array as="points">
              <mxPoint x="375" y="220" />
            </Array>
          </mxGeometry>
        </mxCell>
        <mxCell id="EXyYNqXJy9l3_5CAV1TX-114" value="" style="strokeWidth=2;html=1;shape=mxgraph.flowchart.start_1;whiteSpace=wrap;" vertex="1" parent="1">
          <mxGeometry x="206" y="320" width="20" height="20" as="geometry" />
        </mxCell>
        <mxCell id="EXyYNqXJy9l3_5CAV1TX-117" style="edgeStyle=orthogonalEdgeStyle;rounded=0;orthogonalLoop=1;jettySize=auto;html=1;exitX=0.5;exitY=1;exitDx=0;exitDy=0;entryX=0.5;entryY=0;entryDx=0;entryDy=0;entryPerimeter=0;curved=1;dashed=1;" edge="1" parent="1" source="DO5qITBA8kPqdeRQ393A-20" target="EXyYNqXJy9l3_5CAV1TX-114">
          <mxGeometry relative="1" as="geometry">
            <Array as="points">
              <mxPoint x="216" y="170" />
            </Array>
          </mxGeometry>
        </mxCell>
        <mxCell id="EXyYNqXJy9l3_5CAV1TX-43" value="Node &quot;A&quot;" style="rounded=0;whiteSpace=wrap;html=1;fontSize=10;fillColor=#dae8fc;strokeColor=#6c8ebf;" vertex="1" parent="1">
          <mxGeometry x="423.5" y="280" width="60" height="30" as="geometry" />
        </mxCell>
        <mxCell id="EXyYNqXJy9l3_5CAV1TX-44" value="Node &quot;B&quot;" style="rounded=0;whiteSpace=wrap;html=1;fontSize=10;fillColor=#dae8fc;strokeColor=#6c8ebf;" vertex="1" parent="1">
          <mxGeometry x="423.5" y="340" width="60" height="30" as="geometry" />
        </mxCell>
        <mxCell id="EXyYNqXJy9l3_5CAV1TX-45" value="Node &quot;C&quot;" style="rounded=0;whiteSpace=wrap;html=1;fontSize=10;fillColor=#dae8fc;strokeColor=#6c8ebf;" vertex="1" parent="1">
          <mxGeometry x="523.5" y="280" width="60" height="30" as="geometry" />
        </mxCell>
        <mxCell id="EXyYNqXJy9l3_5CAV1TX-46" style="edgeStyle=orthogonalEdgeStyle;rounded=0;orthogonalLoop=1;jettySize=auto;html=1;exitX=1;exitY=0.25;exitDx=0;exitDy=0;entryX=0;entryY=0.25;entryDx=0;entryDy=0;curved=1;fontSize=10;fillColor=#dae8fc;strokeColor=#6c8ebf;" edge="1" parent="1" source="EXyYNqXJy9l3_5CAV1TX-43" target="EXyYNqXJy9l3_5CAV1TX-45">
          <mxGeometry relative="1" as="geometry" />
        </mxCell>
        <mxCell id="EXyYNqXJy9l3_5CAV1TX-47" value="Node &quot;D&quot;" style="rounded=0;whiteSpace=wrap;html=1;fontSize=10;fillColor=#dae8fc;strokeColor=#6c8ebf;" vertex="1" parent="1">
          <mxGeometry x="523.5" y="330" width="60" height="30" as="geometry" />
        </mxCell>
        <mxCell id="EXyYNqXJy9l3_5CAV1TX-48" style="edgeStyle=orthogonalEdgeStyle;rounded=0;orthogonalLoop=1;jettySize=auto;html=1;exitX=1;exitY=0.25;exitDx=0;exitDy=0;entryX=0;entryY=0.25;entryDx=0;entryDy=0;curved=1;fontSize=10;fillColor=#dae8fc;strokeColor=#6c8ebf;" edge="1" parent="1" source="EXyYNqXJy9l3_5CAV1TX-44" target="EXyYNqXJy9l3_5CAV1TX-47">
          <mxGeometry relative="1" as="geometry" />
        </mxCell>
        <mxCell id="EXyYNqXJy9l3_5CAV1TX-49" value="Node &quot;E&quot;" style="rounded=0;whiteSpace=wrap;html=1;fontSize=10;fillColor=#dae8fc;strokeColor=#6c8ebf;" vertex="1" parent="1">
          <mxGeometry x="523.5" y="370" width="60" height="30" as="geometry" />
        </mxCell>
        <mxCell id="EXyYNqXJy9l3_5CAV1TX-50" style="edgeStyle=orthogonalEdgeStyle;rounded=0;orthogonalLoop=1;jettySize=auto;html=1;exitX=1;exitY=0.75;exitDx=0;exitDy=0;entryX=0;entryY=0.5;entryDx=0;entryDy=0;curved=1;fontSize=10;fillColor=#dae8fc;strokeColor=#6c8ebf;" edge="1" parent="1" source="EXyYNqXJy9l3_5CAV1TX-44" target="EXyYNqXJy9l3_5CAV1TX-49">
          <mxGeometry relative="1" as="geometry" />
        </mxCell>
        <mxCell id="EXyYNqXJy9l3_5CAV1TX-51" value="Node &quot;F&quot;" style="rounded=0;whiteSpace=wrap;html=1;fontSize=10;fillColor=#dae8fc;strokeColor=#6c8ebf;" vertex="1" parent="1">
          <mxGeometry x="623.5" y="300" width="60" height="30" as="geometry" />
        </mxCell>
        <mxCell id="EXyYNqXJy9l3_5CAV1TX-52" style="edgeStyle=orthogonalEdgeStyle;rounded=0;orthogonalLoop=1;jettySize=auto;html=1;exitX=1;exitY=0.25;exitDx=0;exitDy=0;entryX=0;entryY=0.25;entryDx=0;entryDy=0;curved=1;fontSize=10;fillColor=#dae8fc;strokeColor=#6c8ebf;" edge="1" parent="1" source="EXyYNqXJy9l3_5CAV1TX-45" target="EXyYNqXJy9l3_5CAV1TX-51">
          <mxGeometry relative="1" as="geometry" />
        </mxCell>
        <mxCell id="EXyYNqXJy9l3_5CAV1TX-53" style="edgeStyle=orthogonalEdgeStyle;rounded=0;orthogonalLoop=1;jettySize=auto;html=1;exitX=1;exitY=0.25;exitDx=0;exitDy=0;entryX=0;entryY=0.25;entryDx=0;entryDy=0;curved=1;fontSize=10;fillColor=#dae8fc;strokeColor=#6c8ebf;" edge="1" parent="1" source="EXyYNqXJy9l3_5CAV1TX-47" target="EXyYNqXJy9l3_5CAV1TX-51">
          <mxGeometry relative="1" as="geometry" />
        </mxCell>
        <mxCell id="EXyYNqXJy9l3_5CAV1TX-54" style="edgeStyle=orthogonalEdgeStyle;rounded=0;orthogonalLoop=1;jettySize=auto;html=1;exitX=1;exitY=0.5;exitDx=0;exitDy=0;entryX=0;entryY=0.75;entryDx=0;entryDy=0;curved=1;fontSize=10;fillColor=#dae8fc;strokeColor=#6c8ebf;" edge="1" parent="1" source="EXyYNqXJy9l3_5CAV1TX-49" target="EXyYNqXJy9l3_5CAV1TX-51">
          <mxGeometry relative="1" as="geometry" />
        </mxCell>
        <mxCell id="EXyYNqXJy9l3_5CAV1TX-17" value="Node &quot;A&quot;" style="rounded=0;whiteSpace=wrap;html=1;fontSize=10;fillColor=#dae8fc;strokeColor=#6c8ebf;" vertex="1" parent="1">
          <mxGeometry x="70" y="290" width="60" height="30" as="geometry" />
        </mxCell>
        <mxCell id="EXyYNqXJy9l3_5CAV1TX-19" value="Node &quot;B&quot;" style="rounded=0;whiteSpace=wrap;html=1;fontSize=10;fillColor=#dae8fc;strokeColor=#6c8ebf;" vertex="1" parent="1">
          <mxGeometry x="95.5" y="310" width="60" height="30" as="geometry" />
        </mxCell>
        <mxCell id="EXyYNqXJy9l3_5CAV1TX-20" value="Node &quot;C&quot;" style="rounded=0;whiteSpace=wrap;html=1;fontSize=10;fillColor=#dae8fc;strokeColor=#6c8ebf;" vertex="1" parent="1">
          <mxGeometry x="35.5" y="285" width="60" height="30" as="geometry" />
        </mxCell>
        <mxCell id="EXyYNqXJy9l3_5CAV1TX-21" value="Node &quot;D&quot;" style="rounded=0;whiteSpace=wrap;html=1;fontSize=10;fillColor=#dae8fc;strokeColor=#6c8ebf;" vertex="1" parent="1">
          <mxGeometry x="80" y="350" width="60" height="30" as="geometry" />
        </mxCell>
        <mxCell id="EXyYNqXJy9l3_5CAV1TX-22" value="Node &quot;E&quot;" style="rounded=0;whiteSpace=wrap;html=1;fontSize=10;fillColor=#dae8fc;strokeColor=#6c8ebf;" vertex="1" parent="1">
          <mxGeometry x="30" y="340" width="60" height="30" as="geometry" />
        </mxCell>
        <mxCell id="EXyYNqXJy9l3_5CAV1TX-27" style="edgeStyle=orthogonalEdgeStyle;rounded=0;orthogonalLoop=1;jettySize=auto;html=1;exitX=1;exitY=0.75;exitDx=0;exitDy=0;entryX=0;entryY=0.5;entryDx=0;entryDy=0;curved=1;fontSize=10;fillColor=#dae8fc;strokeColor=#6c8ebf;" edge="1" parent="1" source="EXyYNqXJy9l3_5CAV1TX-19" target="EXyYNqXJy9l3_5CAV1TX-22">
          <mxGeometry relative="1" as="geometry" />
        </mxCell>
        <mxCell id="EXyYNqXJy9l3_5CAV1TX-23" value="Node &quot;F&quot;" style="rounded=0;whiteSpace=wrap;html=1;fontSize=10;fillColor=#dae8fc;strokeColor=#6c8ebf;" vertex="1" parent="1">
          <mxGeometry x="60" y="315" width="60" height="30" as="geometry" />
        </mxCell>
        <mxCell id="EXyYNqXJy9l3_5CAV1TX-35" style="edgeStyle=orthogonalEdgeStyle;rounded=0;orthogonalLoop=1;jettySize=auto;html=1;exitX=1;exitY=0.25;exitDx=0;exitDy=0;entryX=0;entryY=0.25;entryDx=0;entryDy=0;curved=1;fontSize=10;fillColor=#dae8fc;strokeColor=#6c8ebf;" edge="1" parent="1" source="EXyYNqXJy9l3_5CAV1TX-20" target="EXyYNqXJy9l3_5CAV1TX-23">
          <mxGeometry relative="1" as="geometry" />
        </mxCell>
        <mxCell id="EXyYNqXJy9l3_5CAV1TX-32" style="edgeStyle=orthogonalEdgeStyle;rounded=0;orthogonalLoop=1;jettySize=auto;html=1;exitX=1;exitY=0.25;exitDx=0;exitDy=0;entryX=0;entryY=0.25;entryDx=0;entryDy=0;curved=1;fontSize=10;fillColor=#dae8fc;strokeColor=#6c8ebf;" edge="1" parent="1" source="EXyYNqXJy9l3_5CAV1TX-21" target="EXyYNqXJy9l3_5CAV1TX-23">
          <mxGeometry relative="1" as="geometry" />
        </mxCell>
        <mxCell id="EXyYNqXJy9l3_5CAV1TX-30" style="edgeStyle=orthogonalEdgeStyle;rounded=0;orthogonalLoop=1;jettySize=auto;html=1;exitX=1;exitY=0.5;exitDx=0;exitDy=0;entryX=0;entryY=0.75;entryDx=0;entryDy=0;curved=1;fontSize=10;fillColor=#dae8fc;strokeColor=#6c8ebf;" edge="1" parent="1" source="EXyYNqXJy9l3_5CAV1TX-22" target="EXyYNqXJy9l3_5CAV1TX-23">
          <mxGeometry relative="1" as="geometry" />
        </mxCell>
        <mxCell id="EXyYNqXJy9l3_5CAV1TX-33" style="edgeStyle=orthogonalEdgeStyle;rounded=0;orthogonalLoop=1;jettySize=auto;html=1;exitX=1;exitY=0.25;exitDx=0;exitDy=0;entryX=0;entryY=0.25;entryDx=0;entryDy=0;curved=1;fontSize=10;fillColor=#dae8fc;strokeColor=#6c8ebf;" edge="1" parent="1" source="EXyYNqXJy9l3_5CAV1TX-17" target="EXyYNqXJy9l3_5CAV1TX-20">
          <mxGeometry relative="1" as="geometry" />
        </mxCell>
        <mxCell id="EXyYNqXJy9l3_5CAV1TX-26" style="edgeStyle=orthogonalEdgeStyle;rounded=0;orthogonalLoop=1;jettySize=auto;html=1;exitX=1;exitY=0.25;exitDx=0;exitDy=0;entryX=0;entryY=0.25;entryDx=0;entryDy=0;curved=1;fontSize=10;fillColor=#dae8fc;strokeColor=#6c8ebf;" edge="1" parent="1" source="EXyYNqXJy9l3_5CAV1TX-19" target="EXyYNqXJy9l3_5CAV1TX-21">
          <mxGeometry relative="1" as="geometry" />
        </mxCell>
        <mxCell id="EXyYNqXJy9l3_5CAV1TX-65" value="TransitionApplier" style="rounded=0;whiteSpace=wrap;html=1;" vertex="1" parent="1">
          <mxGeometry x="338" y="230" width="105.5" height="30" as="geometry" />
        </mxCell>
        <mxCell id="EXyYNqXJy9l3_5CAV1TX-66" value="StandardApplier" style="rounded=0;whiteSpace=wrap;html=1;" vertex="1" parent="1">
          <mxGeometry x="338" y="190" width="105.5" height="30" as="geometry" />
        </mxCell>
        <mxCell id="EXyYNqXJy9l3_5CAV1TX-124" value="" style="edgeStyle=orthogonalEdgeStyle;rounded=0;orthogonalLoop=1;jettySize=auto;html=1;exitX=1;exitY=0.5;exitDx=0;exitDy=0;entryX=0;entryY=0.5;entryDx=0;entryDy=0;dashed=1;" edge="1" parent="1" source="EXyYNqXJy9l3_5CAV1TX-74" target="EXyYNqXJy9l3_5CAV1TX-123">
          <mxGeometry relative="1" as="geometry">
            <mxPoint x="287" y="330" as="sourcePoint" />
            <mxPoint x="360" y="330" as="targetPoint" />
          </mxGeometry>
        </mxCell>
        <mxCell id="EXyYNqXJy9l3_5CAV1TX-123" value="" style="sketch=0;outlineConnect=0;fontColor=#232F3E;gradientColor=none;strokeColor=#232F3E;fillColor=#ffffff;dashed=1;verticalLabelPosition=bottom;verticalAlign=top;align=center;html=1;fontSize=12;fontStyle=0;aspect=fixed;shape=mxgraph.aws4.resourceIcon;resIcon=mxgraph.aws4.action;" vertex="1" parent="1">
          <mxGeometry x="308" y="315" width="30" height="30" as="geometry" />
        </mxCell>
        <mxCell id="EXyYNqXJy9l3_5CAV1TX-126" value="ports placement" style="shape=note;whiteSpace=wrap;html=1;backgroundOutline=1;darkOpacity=0.05;size=13;fillColor=#fff2cc;strokeColor=#d6b656;" vertex="1" parent="1">
          <mxGeometry x="208.5" y="109" width="74" height="39" as="geometry" />
        </mxCell>
        <mxCell id="EXyYNqXJy9l3_5CAV1TX-127" value="apply positions" style="shape=note;whiteSpace=wrap;html=1;backgroundOutline=1;darkOpacity=0.05;size=13;fillColor=#fff2cc;strokeColor=#d6b656;" vertex="1" parent="1">
          <mxGeometry x="379" y="108" width="60" height="40" as="geometry" />
        </mxCell>
      </root>
    </mxGraphModel>
  </diagram>
</mxfile>
